<svg xmlns="http://www.w3.org/2000/svg" width="39.4" height="84.3" viewBox="0 0 39.4 84.3"><g transform="translate(-482.3 -550)"><path d="M86.3,67.5V37.9h0V16.3a12.549,12.549,0,0,0-4.7-9.5A18.553,18.553,0,0,0,73,3a10.978,10.978,0,0,0-2.6-.2V16.5h0V58.4h0v1.4l.4,2.1h0A10.888,10.888,0,0,0,73,66c3.2,3.8,7.6,5.5,12.4,6,.6,0,.7-.1.7-.7Z" transform="translate(411.9 547.2)" fill="#fff"/><path d="M109.8,82.7V56h0V44.3a12.549,12.549,0,0,0-4.7-9.5A18.115,18.115,0,0,0,96.5,31c-.8-.1-1.8-.1-2.6-.2V44.5h0v29h0v1.4c.1.7.3,1.4.4,2.1h0a10.671,10.671,0,0,0,2.1,4.1c3.3,3.8,7.6,5.5,12.4,6,.6,0,.7-.1.7-.7Z" transform="translate(411.9 547.2)" fill="#fff"/></g></svg>