<svg xmlns="http://www.w3.org/2000/svg" width="222.5" height="189.1" viewBox="0 0 222.5 189.1"><path d="M77.9,11.1H5.6A5.57,5.57,0,0,1,0,5.6,5.591,5.591,0,0,1,5.6,0H77.9a5.591,5.591,0,0,1,5.6,5.6A5.569,5.569,0,0,1,77.9,11.1Z" fill="#fff"/><path d="M155.7,11.1H100.1a5.591,5.591,0,0,1-5.6-5.6A5.507,5.507,0,0,1,100.1,0h55.6a5.591,5.591,0,0,1,5.6,5.6A5.507,5.507,0,0,1,155.7,11.1Z" fill="#fff"/><path d="M189.1,11.1H178a5.591,5.591,0,0,1-5.6-5.6A5.507,5.507,0,0,1,178,0h11.1a5.591,5.591,0,0,1,5.6,5.6A5.507,5.507,0,0,1,189.1,11.1Z" fill="#fff"/><path d="M216.9,122H133.5a5.6,5.6,0,0,1,0-11.2h83.4a5.6,5.6,0,1,1,0,11.2Z" fill="#fff"/><path d="M111.2,122H33.4a5.6,5.6,0,1,1,0-11.2h77.9a5.591,5.591,0,0,1,5.6,5.6A5.743,5.743,0,0,1,111.2,122Z" fill="#fff"/><path d="M11.1,122H5.6a5.6,5.6,0,1,1,0-11.2h5.6a5.591,5.591,0,0,1,5.6,5.6A5.743,5.743,0,0,1,11.1,122Z" fill="#fff"/><path d="M55.6,144.2H5.6a5.6,5.6,0,0,1,0-11.2H55.7a5.591,5.591,0,0,1,5.6,5.6A5.743,5.743,0,0,1,55.6,144.2Z" fill="#fff"/><path d="M89,144.2H77.9a5.6,5.6,0,0,1,0-11.2H89a5.591,5.591,0,0,1,5.6,5.6A5.656,5.656,0,0,1,89,144.2Z" fill="#fff"/><path d="M189.1,144.2H111.2a5.6,5.6,0,0,1,0-11.2h77.9a5.6,5.6,0,0,1,0,11.2Z" fill="#fff"/><path d="M77.9,77.9H5.6a5.6,5.6,0,1,1,0-11.2H77.9a5.591,5.591,0,0,1,5.6,5.6A5.656,5.656,0,0,1,77.9,77.9Z" fill="#fff"/><path d="M155.7,77.9H100.1a5.6,5.6,0,0,1,0-11.2h55.6a5.6,5.6,0,1,1,0,11.2Z" fill="#fff"/><path d="M178,100.1H133.5a5.6,5.6,0,0,1,0-11.2H178a5.591,5.591,0,0,1,5.6,5.6A5.656,5.656,0,0,1,178,100.1Z" fill="#fff"/><path d="M111.2,100.1H33.4a5.6,5.6,0,1,1,0-11.2h77.9a5.591,5.591,0,0,1,5.6,5.6A5.677,5.677,0,0,1,111.2,100.1Z" fill="#fff"/><path d="M11.1,100.1H5.6A5.591,5.591,0,0,1,0,94.5,5.507,5.507,0,0,1,5.6,89h5.6a5.551,5.551,0,1,1-.1,11.1Z" fill="#fff"/><path d="M55.6,33.4H5.6a5.6,5.6,0,0,1,0-11.2H55.7a5.591,5.591,0,0,1,5.6,5.6A5.677,5.677,0,0,1,55.6,33.4Z" fill="#fff"/><path d="M89,33.4H77.9a5.6,5.6,0,0,1,0-11.2H89a5.6,5.6,0,0,1,0,11.2Z" fill="#fff"/><path d="M194.7,33.4H111.3a5.6,5.6,0,0,1,0-11.2h83.4a5.591,5.591,0,0,1,5.6,5.6A5.656,5.656,0,0,1,194.7,33.4Z" fill="#fff"/><path d="M77.9,55.6H5.6a5.6,5.6,0,1,1,0-11.2H77.9A5.591,5.591,0,0,1,83.5,50,5.656,5.656,0,0,1,77.9,55.6Z" fill="#fff"/><path d="M155.7,55.6H100.1a5.6,5.6,0,0,1,0-11.2h55.6a5.6,5.6,0,1,1,0,11.2Z" fill="#fff"/><path d="M216.9,55.6H178a5.6,5.6,0,1,1,0-11.2h38.9a5.6,5.6,0,1,1,0,11.2Z" fill="#fff"/><path d="M155.7,166.8H133.5a5.6,5.6,0,0,1,0-11.2h22.2a5.6,5.6,0,1,1,0,11.2Z" fill="#fff"/><path d="M111.2,166.8H33.4a5.6,5.6,0,0,1,0-11.2h77.9a5.591,5.591,0,0,1,5.6,5.6A5.677,5.677,0,0,1,111.2,166.8Z" fill="#fff"/><path d="M11.1,166.8H5.6a5.6,5.6,0,0,1,0-11.2h5.6a5.591,5.591,0,0,1,5.6,5.6A5.677,5.677,0,0,1,11.1,166.8Z" fill="#fff"/><path d="M55.6,189.1H5.6a5.6,5.6,0,0,1,0-11.2H55.7a5.591,5.591,0,0,1,5.6,5.6A5.743,5.743,0,0,1,55.6,189.1Z" fill="#fff"/><path d="M89,189.1H77.9a5.6,5.6,0,0,1,0-11.2H89a5.591,5.591,0,0,1,5.6,5.6A5.656,5.656,0,0,1,89,189.1Z" fill="#fff"/><path d="M150.2,189.1H111.3a5.6,5.6,0,0,1,0-11.2h38.9a5.591,5.591,0,0,1,5.6,5.6A5.723,5.723,0,0,1,150.2,189.1Z" fill="#fff"/><path d="M178,189.1h-5.6a5.6,5.6,0,0,1,0-11.2H178a5.591,5.591,0,0,1,5.6,5.6A5.723,5.723,0,0,1,178,189.1Z" fill="#fff"/></svg>