<svg xmlns="http://www.w3.org/2000/svg" width="55.127" height="58.807" viewBox="0 0 55.127 58.807"><g transform="translate(-0.017 0)"><g transform="translate(0.017 0)"><path d="M18.317,3.378a1.519,1.519,0,0,1,.969-1.917A30.729,30.729,0,0,1,41.224,2.717a1.519,1.519,0,0,1-1.369,2.71A28.171,28.171,0,0,0,20.232,4.347a1.515,1.515,0,0,1-1.915-.969ZM46.178,8.412A1.529,1.529,0,1,0,45.1,7.965a1.529,1.529,0,0,0,1.082.447ZM4.993,31.49a1.531,1.531,0,1,0,1.529,1.529A1.531,1.531,0,0,0,4.993,31.49Zm24.832,5.9A1.529,1.529,0,1,0,28.3,38.921a1.529,1.529,0,0,0,1.529-1.529ZM9.951,15.607A1.526,1.526,0,0,0,8.2,13.117h0l-.057.046c-.037.027-.073.053-.108.084A31.161,31.161,0,0,0,.238,21.871a1.492,1.492,0,0,0,.507,2.063,1.494,1.494,0,0,0,2.068-.507,28.071,28.071,0,0,1,7.138-7.82Zm44.91,4.549a31.028,31.028,0,0,0-11.243-9.808A34.823,34.823,0,0,0,14.841,9.332a1.2,1.2,0,0,0-.156.062l-.03.011h0a1.526,1.526,0,0,0,.679,2.893,1.5,1.5,0,0,0,.759-.206h0a32.234,32.234,0,0,1,26.171.923,28.439,28.439,0,0,1,10.207,8.88,1.316,1.316,0,0,0,1.168.628,1.554,1.554,0,0,0,.87-.269,1.494,1.494,0,0,0,.352-2.1Zm-40.7,17.263c0-7.26,6.273-13.171,13.987-13.171a14.377,14.377,0,0,1,9.19,3.29c.194.162.388.318.587.5a1.5,1.5,0,1,0,2.038-2.212c-.333-.306-.551-.469-.889-.763l-.011.012a17.375,17.375,0,0,0-10.911-3.828c-9.366,0-16.985,7.259-16.985,16.171a1.5,1.5,0,1,0,3,0Zm30.2-4.7a1.544,1.544,0,1,0-2.994.752c.114.452.286.825.416,1.27a11.677,11.677,0,0,1,.356,2.676,23.491,23.491,0,0,1-2.786,11.548,28.385,28.385,0,0,1-5.555,7.26,1.545,1.545,0,0,0,0,2.134,1.659,1.659,0,0,0,1.111.448,1.423,1.423,0,0,0,1.051-.448,30.294,30.294,0,0,0,6.03-7.92,26.6,26.6,0,0,0,3.155-13.023,14.782,14.782,0,0,0-.519-3.807C44.5,33.19,44.469,33.143,44.357,32.718ZM28.1,44.4h0a1.526,1.526,0,1,0-2.751-1.3h0a11.865,11.865,0,0,1-4.339,4.91,13.163,13.163,0,0,1-7.614,2.134,19.738,19.738,0,0,1-3.128-.3,1.506,1.506,0,0,0-.509,2.966,20.706,20.706,0,0,0,3.636.356A16.069,16.069,0,0,0,22.686,50.5,17.161,17.161,0,0,0,28.1,44.4Zm.135-15.886A9.045,9.045,0,0,0,19,37.333a6.035,6.035,0,0,1-6.236,5.815,6.1,6.1,0,0,1-.654-.039,1.514,1.514,0,0,0-.469-.082,1.529,1.529,0,0,0,0,3.058,1.552,1.552,0,0,0,.178-.018c.309.03.622.05.939.05a9.037,9.037,0,0,0,9.232-8.811,6.042,6.042,0,0,1,6.24-5.822,6.039,6.039,0,0,1,6.236,5.822,18.875,18.875,0,0,1-5.6,13.514,19.6,19.6,0,0,1-6.579,4.445v.014a1.523,1.523,0,0,0,1.4,2.7h0a22.968,22.968,0,0,0,7.264-5.013A21.872,21.872,0,0,0,37.45,37.324a9.015,9.015,0,0,0-9.218-8.807ZM20.31,14.974c-.58.178-1.142.386-1.695.6Zm10.3-1.092h0c-.791-.075-1.6-.116-2.406-.116A25.13,25.13,0,0,0,5.58,27.681h0a1.527,1.527,0,1,0,2.785,1.245h0A21.952,21.952,0,0,1,28.2,16.791c.381,0,.758.014,1.134.032.274.014.544.039.816.062.192.016.386.027.578.048h0a21.79,21.79,0,0,1,17.346,12,19.275,19.275,0,0,1,1.769,8.4,25.481,25.481,0,0,1-.293,4.213h0a1.464,1.464,0,0,0-.018.178,1.529,1.529,0,0,0,3.023.3h0a33.991,33.991,0,0,0,.267-4.675,22.53,22.53,0,0,0-2.038-9.714A24.793,24.793,0,0,0,30.613,13.882Z" transform="translate(-0.017 0)" fill="#fff"/></g></g></svg>